<svg width="44" height="50" viewBox="0 0 44 50" fill="none" xmlns="http://www.w3.org/2000/svg">
<path d="M22.0001 49.3094C19.0845 49.3094 16.3148 48.8631 13.6908 47.9707C11.0668 47.0783 8.77164 45.856 6.80542 44.304C4.83564 42.752 3.26853 40.9191 2.10409 38.8054C0.939644 36.6916 0.357422 34.4151 0.357422 31.976V29.3094C0.357422 28.8774 0.5512 28.5627 0.938756 28.3654C1.32453 28.1662 1.70587 28.1929 2.08276 28.4454L5.63742 31.1334C6.15653 31.5191 6.44987 32.0382 6.51742 32.6907C6.5832 33.3414 6.37876 33.904 5.90409 34.3787L3.91742 36.3654C5.20631 39.3502 7.33609 41.7414 10.3068 43.5387C13.2774 45.3378 16.7308 46.3565 20.6668 46.5947V22.5387H14.0001C13.6214 22.5387 13.3041 22.4116 13.0481 22.1574C12.7921 21.9031 12.665 21.5858 12.6668 21.2054C12.6685 20.8249 12.7956 20.5076 13.0481 20.2534C13.3005 19.9991 13.6179 19.872 14.0001 19.872H20.6668V13.8667C19.145 13.4934 17.8756 12.7147 16.8588 11.5307C15.8419 10.3467 15.3334 8.95647 15.3334 7.36003C15.3334 5.51292 15.9823 3.93958 17.2801 2.64003C18.5814 1.34225 20.1548 0.693359 22.0001 0.693359C23.8454 0.693359 25.4188 1.34225 26.7201 2.64003C28.0179 3.93958 28.6668 5.51292 28.6668 7.36003C28.6668 8.95647 28.1583 10.3467 27.1414 11.5307C26.1245 12.7165 24.8552 13.4951 23.3334 13.8667V19.872H30.0001C30.3805 19.872 30.6979 19.9991 30.9521 20.2534C31.2063 20.5076 31.3334 20.8249 31.3334 21.2054C31.3334 21.5858 31.2063 21.9031 30.9521 22.1574C30.6979 22.4116 30.3805 22.5387 30.0001 22.5387H23.3334V46.5947C27.2694 46.3565 30.7308 45.3467 33.7174 43.5654C36.7041 41.784 38.8259 39.4009 40.0828 36.416L38.0961 34.3787C37.6214 33.904 37.409 33.3414 37.4588 32.6907C37.5085 32.0382 37.793 31.5191 38.3121 31.1334L41.9174 28.4454C42.2943 28.1929 42.6756 28.1662 43.0614 28.3654C43.449 28.5627 43.6428 28.8774 43.6428 29.3094V31.976C43.6428 34.4169 43.0605 36.6934 41.8961 38.8054C40.7316 40.9191 39.1645 42.752 37.1948 44.304C35.225 45.856 32.9299 47.0774 30.3094 47.968C27.689 48.8587 24.9192 49.3058 22.0001 49.3094ZM22.0001 11.36C23.097 11.36 24.0383 10.9671 24.8241 10.1814C25.6081 9.39736 26.0001 8.45692 26.0001 7.36003C26.0001 6.26136 25.6081 5.32003 24.8241 4.53603C24.0383 3.75203 23.097 3.36003 22.0001 3.36003C20.9032 3.36003 19.9619 3.75203 19.1761 4.53603C18.3903 5.32003 17.9983 6.26136 18.0001 7.36003C18.0019 8.45869 18.3939 9.39914 19.1761 10.1814C19.9583 10.9636 20.8996 11.3565 22.0001 11.36Z" fill="#E6E6E6"/>
</svg>
