<svg width="57" height="46" viewBox="0 0 57 46" fill="none" xmlns="http://www.w3.org/2000/svg">
<path d="M28.875 0V6.625H25.625V12.625H21.3716L21.0541 14.8943L16.2531 14.4936L15.9968 16.7564L20.7453 17.1306L20.1731 21.4196L16.9741 23.1646L19.7248 31.303C13.9532 31.7251 8.20173 32.3886 2.48558 33.2918L2.83708 35.5139C7.85847 34.7209 12.9076 34.1151 17.9741 33.6978L17.9643 33.7365C32.0327 37.256 41.7832 39.1225 56.3163 32.6167L55.397 30.563C54.2925 31.0586 53.1735 31.5209 52.0415 31.9495C48.3047 31.4476 44.4017 31.1179 40.397 30.9429L43.0258 23.1645L39.8268 21.4196L38.6283 12.625H34.375V6.625H31.125V0H28.875ZM27.875 8.875H32.125V12.625H27.875V8.875ZM23.3783 14.875H36.3716L37.1416 19.9549L30 16.4685L22.8583 19.9548L23.3783 14.875ZM30 19.0315V30.8247C29.3235 30.8377 28.646 30.8544 27.9672 30.875H22.1597L19.5258 24.3355L30 19.0315ZM35.2712 21.75C36.3757 21.75 37.2712 22.6454 37.2712 23.75C37.2712 24.8546 36.3757 25.75 35.2712 25.75C34.1667 25.75 33.2712 24.8546 33.2712 23.75C33.2712 22.6454 34.1666 21.75 35.2712 21.75ZM28.1562 33.125H38.4567C41.2695 33.2136 44.034 33.3762 46.7253 33.62C39.3598 35.4401 33.0527 34.8441 25.5338 33.2207C26.4077 33.1828 27.2819 33.1509 28.1562 33.125ZM11.5481 36.7954C10.5552 36.7925 9.58971 36.8246 8.66258 36.9006L8.84621 39.1432C15.645 38.5864 25.473 40.7045 32.4961 41.2935C39.4511 41.8766 46.2418 41.083 53.5778 39.6045L53.1332 37.3989C45.9082 38.8551 39.3483 39.6104 32.6843 39.0515C26.7902 38.5572 18.4981 36.8159 11.5481 36.7954ZM14.0756 41.206C12.5508 41.1961 10.9022 41.2829 9.26096 41.4401C5.97846 41.7549 2.81096 42.3348 0.777832 43.2226L1.67821 45.2846C3.21596 44.6131 6.33371 43.9813 9.47571 43.6799C12.618 43.3786 15.8703 43.391 17.7065 43.758C21.826 44.5816 29.1326 45.8752 35.034 45.6885L34.9628 43.4398C29.4562 43.614 22.2037 42.3624 18.1475 41.5515C17.0012 41.3224 15.6005 41.216 14.0756 41.206Z" fill="#E6E6E6"/>
</svg>
