<svg width="60" height="60" viewBox="0 0 60 60" fill="none" xmlns="http://www.w3.org/2000/svg">
<path d="M36.8172 0.344727L34.9501 7.31323C33.3453 6.9675 31.7083 6.79335 30.0667 6.79373V9.12648C31.4799 9.12773 32.9117 9.27485 34.3438 9.57523L32.5328 16.3335C32.9043 16.4014 33.2761 16.4842 33.6473 16.5837C34.0361 16.688 34.4163 16.8085 34.7882 16.9429L36.6009 10.1775C37.967 10.6244 39.2834 11.2111 40.5291 11.9282L41.6963 9.90648C40.2744 9.08626 38.7694 8.41951 37.2066 7.91748L39.2359 0.344727H36.8172ZM24.0501 7.59448C20.1124 8.65956 16.5216 10.7358 13.6341 13.6171L15.2778 15.2609C16.2966 14.2409 17.4153 13.3326 18.6133 12.5479L22.1053 18.5962C22.7462 18.1516 23.4232 17.7613 24.1291 17.4295L20.6356 11.3782C21.9182 10.7295 23.2642 10.2144 24.6522 9.8411L24.0501 7.59448ZM46.5086 13.6076L44.8643 15.2521C45.8804 16.2695 46.7889 17.3888 47.5756 18.5924L41.4891 22.1066C41.9327 22.7482 42.322 23.4258 42.6528 24.1322L48.7434 20.616C49.3917 21.8992 49.906 23.2457 50.2782 24.6344L52.5244 24.0324C51.4624 20.0924 49.3885 16.4986 46.5086 13.6077V13.6076ZM9.93981 18.4294C9.12091 19.8501 8.45531 21.3539 7.95419 22.9154L0.362061 20.881V23.2995L7.35006 25.1716C7.00585 26.7748 6.83313 28.41 6.83481 30.0497H9.16631C9.16731 28.6141 9.31613 27.1824 9.61044 25.7772L16.3413 27.5807C16.4109 27.1926 16.4967 26.8076 16.5984 26.4267C16.6984 26.0546 16.8136 25.6867 16.9437 25.324L10.2133 23.5205C10.6592 22.1557 11.2445 20.8406 11.9599 19.5957L9.93969 18.4292L9.93981 18.4294ZM30.1927 20.9899C30.081 20.9902 29.9693 20.9927 29.8577 20.9974C25.9967 21.1549 22.5046 23.7924 21.4539 27.7136C20.1606 32.5399 23.0424 37.5311 27.8686 38.8244C32.6947 40.1176 37.6861 37.2356 38.9792 32.4094C40.2723 27.5835 37.3907 22.5921 32.5647 21.299C31.7912 21.0913 30.9936 20.9874 30.1928 20.99L30.1927 20.9899ZM30.1914 23.3221C30.3524 23.3221 30.5141 23.3278 30.6764 23.3392L29.9892 25.8864C30.1017 25.8774 30.2149 25.8714 30.3298 25.8714C31.0103 25.8705 31.6807 26.0359 32.2827 26.3534L32.9443 23.9012C35.6053 25.0709 37.2081 27.821 36.9216 30.7082L34.5278 30.0622L34.5282 30.0691C34.5292 30.8615 34.3047 31.6378 33.8809 32.3074L36.2974 32.9591C35.0733 35.546 32.3347 37.0816 29.4757 36.7579L30.1488 34.2629C29.3533 34.2296 28.5839 33.9696 27.9313 33.5135L27.2326 36.1017C24.7538 34.8857 23.2686 32.2667 23.5038 29.5076L26.1356 30.2176C26.1338 30.1681 26.1318 30.1189 26.1318 30.0689C26.1318 29.2964 26.3412 28.5734 26.7052 27.9516L24.0949 27.2475C25.1568 24.9205 27.4358 23.4227 29.9421 23.3266C30.0251 23.3235 30.1082 23.3218 30.1913 23.3216L30.1914 23.3221ZM50.9856 30.0499C50.9831 31.4624 50.8373 32.8936 50.5358 34.3249L43.7431 32.5049C43.6743 32.8841 43.5901 33.2605 43.4906 33.6329C43.3884 34.0135 43.2703 34.3897 43.1364 34.7604L49.9297 36.5807C49.4817 37.9457 48.8943 39.2609 48.1767 40.5055L50.1982 41.6727C51.0192 40.2521 51.687 38.7482 52.1902 37.1865L59.7719 39.218V36.7997L52.7963 34.9306C53.1424 33.3268 53.3172 31.6907 53.3176 30.05H50.9854L50.9856 30.0499ZM9.87844 35.459L7.63219 36.0607C8.696 39.9952 10.769 43.5835 13.6459 46.4705L15.2906 44.8261C14.2761 43.8106 13.3686 42.6934 12.5826 41.4924L18.6322 38C18.1859 37.3601 17.7938 36.6841 17.4601 35.979L11.4138 39.47C10.7658 38.1892 10.2513 36.8451 9.87844 35.459ZM37.9991 41.4527C37.3587 41.8982 36.6823 42.2893 35.9768 42.6221L39.4908 48.7084C38.2089 49.3553 36.8638 49.8687 35.4768 50.2402L36.0787 52.4859C40.0152 51.4255 43.6064 49.3549 46.4962 46.4792L44.8522 44.8355C43.8355 45.8498 42.7171 46.7567 41.5147 47.542L37.9989 41.4526L37.9991 41.4527ZM25.3513 43.135L23.5401 49.8937C22.1766 49.447 20.8629 48.8609 19.6197 48.1447L18.4524 50.1665C19.8718 50.9858 21.3742 51.652 22.9343 52.154L20.8977 59.754H23.3164L25.1906 52.759C26.7929 53.1051 28.4275 53.2802 30.0668 53.2812V50.947C28.6317 50.9446 27.2007 50.7944 25.7963 50.499L27.6088 43.7352C27.2162 43.6651 26.8267 43.5784 26.4413 43.4756C26.0701 43.3761 25.7069 43.2619 25.3513 43.135Z" fill="#CDCDCD"/>
</svg>
