<svg width="60" height="60" viewBox="0 0 60 60" fill="none" xmlns="http://www.w3.org/2000/svg">
<path d="M29.9999 -0.0012207C28.8999 -0.0012207 27.9999 1.79003 27.9999 3.99878C27.9999 5.05753 28.2124 6.07253 28.5874 6.82003C27.9999 6.84628 27.4624 6.96503 26.8749 7.12378V9.10503C29.0124 8.80253 31.1374 8.81628 33.1249 9.10503V7.12378C32.5624 6.95503 31.9499 6.86003 31.4124 6.82003C31.7874 6.07253 31.9999 5.05753 31.9999 3.99878C31.9999 1.79003 31.0999 -0.0012207 29.9999 -0.0012207ZM8.77866 8.78503C7.99741 9.56628 8.62991 11.4625 10.1912 13.025C10.9499 13.775 11.8124 14.35 12.6124 14.6125C12.2124 15.05 11.9124 15.5125 11.6124 16.0375L13.0249 17.4375C14.2624 15.7625 15.7624 14.2625 17.4374 13.025L16.0374 11.6125C15.5124 11.8875 15.0374 12.2625 14.6124 12.6125C14.3499 11.8125 13.7749 10.95 13.0249 10.2C12.0249 9.42378 9.95616 7.65003 8.77866 8.78503ZM46.9749 10.1975C46.2249 10.95 45.6499 11.8125 45.3874 12.6125C44.9499 12.2125 44.4874 11.9125 43.9624 11.6125L42.5624 13.025C44.2374 14.2625 45.7374 15.7625 46.9749 17.4375L48.3874 16.0375C48.1124 15.5125 47.7374 15.0375 47.3874 14.6125C48.1749 14.3375 49.0374 13.775 49.7874 13.025C51.3499 11.4625 51.9874 9.56378 51.1999 8.78378C49.9624 7.80003 47.6999 9.48628 46.9749 10.1975ZM29.1874 11.1375C24.5874 11.3375 20.4124 13.175 17.2374 16.0875C16.8249 16.475 16.4124 16.875 16.0874 17.2375C13.1749 20.4125 11.3374 24.5875 11.1374 29.2C11.1374 29.7625 11.1124 30.3375 11.1499 30.825C11.3374 35.425 13.1749 39.6 16.0874 42.775C16.4749 43.175 16.8874 43.5875 17.2374 43.925C20.4124 46.825 24.5874 48.6625 29.1874 48.8625H29.2124C29.7249 48.8875 30.2999 48.8625 30.8124 48.8625C35.4124 48.6625 39.5874 46.825 42.7624 43.9125C43.1749 43.525 43.5874 43.125 43.9124 42.7625C46.8249 39.5875 48.6624 35.4125 48.8624 30.8125V30.7875C48.8874 30.2625 48.8624 29.7 48.8624 29.1875C48.6624 24.5875 46.8249 20.4125 43.9124 17.2375C43.5249 16.825 43.1249 16.4125 42.7624 16.0875C39.5874 13.175 35.4124 11.3375 30.8124 11.1375C30.2499 11.1125 29.6749 11.1375 29.1874 11.1375ZM29.9999 12.475C30.5499 12.475 30.9999 12.925 30.9999 13.475C30.9999 14.025 30.5499 14.475 29.9999 14.475C29.4499 14.475 28.9999 14.025 28.9999 13.475C28.9999 12.925 29.4499 12.475 29.9999 12.475ZM30.8624 16.025C34.0749 16.225 36.9999 17.5 39.2749 19.5125C39.6999 19.9 40.1124 20.3 40.4874 20.725C42.4999 23 43.7749 25.925 43.9749 29.15C44.0249 29.725 43.9749 30.3 43.9749 30.8625C43.7749 34.075 42.4999 37 40.4874 39.275C40.0999 39.7 39.6999 40.1125 39.2749 40.4875C36.9999 42.5 34.0749 43.775 30.8499 43.975C30.2749 43.9875 29.6999 44.025 29.1374 43.975C25.9249 43.775 22.9999 42.5 20.7374 40.4875H20.7249C20.2999 40.1125 19.8999 39.7 19.5249 39.275C17.5124 37.0125 16.2249 34.0875 16.0249 30.8625C16.0124 30.2875 15.9749 29.725 16.0249 29.1625C16.0874 25.9375 17.6874 22.85 19.5124 20.725C19.8999 20.3 20.2999 19.8875 20.7249 19.5125C22.9999 17.5 25.9249 16.225 29.1499 16.025C29.7249 15.975 30.2999 16.025 30.8624 16.025ZM19.0124 17.6C19.3999 17.9875 19.3999 18.625 19.0124 19.0125C18.6249 19.4 17.9874 19.4 17.5999 19.0125C17.2124 18.625 17.2124 17.9875 17.5999 17.6C18.0374 17.2375 18.6249 17.2375 19.0124 17.6ZM42.3999 17.6C42.7874 17.9875 42.7874 18.625 42.3999 19.0125C42.0124 19.4 41.3749 19.4 40.9874 19.0125C40.5999 18.625 40.5999 17.9875 40.9874 17.6C41.4249 17.2375 42.0124 17.2375 42.3999 17.6ZM27.9999 18.4125V19.5C28.3124 19.9 28.5499 20.1875 28.9749 20.35C28.8874 21.9 28.7749 23.4875 28.6249 25.0625C29.5499 24.825 30.5249 24.8125 31.3874 25.075C31.2374 23.4875 31.1124 21.9 31.0249 20.3375C32.0124 20.075 31.9999 19.2625 31.9999 18.4125C30.6249 18.2 29.2749 18.2125 27.9999 18.4125ZM23.2124 20.3875C22.1249 21.1625 21.1624 22.125 20.3874 23.2125L21.1624 23.9875C21.6624 24.05 22.0374 24.0875 22.4499 23.9C23.4874 25.0625 24.5249 26.2625 25.5374 27.4875C25.9999 26.675 26.6749 26 27.4999 25.5375C26.2624 24.525 25.0624 23.4875 23.8999 22.45C24.1249 22.0625 24.0624 21.6125 23.9874 21.1625L23.2124 20.3875ZM36.7874 20.3875L36.0124 21.1625C35.9249 21.6625 35.9124 22.025 36.0874 22.45C34.9374 23.4875 33.7249 24.525 32.4999 25.5375C33.3124 26 33.9874 26.675 34.4499 27.5C35.4624 26.2625 36.5124 25.0625 37.5374 23.9C37.9374 24.1125 38.3749 24.0625 38.8249 23.9875L39.5999 23.2125C38.8249 22.125 37.8749 21.1625 36.7874 20.3875ZM50.8874 26.875C51.1999 29.0125 51.1749 31.1375 50.8874 33.125H52.8749C53.0624 32.5625 53.1249 31.95 53.1624 31.4125C53.9124 31.7875 54.9374 32 55.9999 32C58.2124 32 59.9999 31.1 59.9999 30C59.9999 28.9 58.2124 28 55.9999 28C54.9374 28 53.9124 28.2125 53.1624 28.5875C53.1499 28 53.0374 27.4625 52.8749 26.875H50.8874ZM7.12866 26.8875C6.95991 27.45 6.86491 28.0375 6.82866 28.5875C6.07616 28.2125 5.05991 28.0125 4.00366 28.0125C1.79491 28.0125 0.00366211 28.9125 0.00366211 30.0125C0.00366211 31.1125 1.79491 32.0125 4.00366 32.0125C5.06366 32.0125 6.07991 31.8 6.82866 31.425C6.84741 32.0125 6.96866 32.55 7.12866 33.1375H9.10366C8.80616 31 8.79116 28.875 9.10366 26.8875H7.12866ZM29.9999 27.125C28.3874 27.125 27.1249 28.4 27.1249 30C27.1249 31.6 28.3874 32.875 29.9999 32.875C31.5999 32.875 32.8749 31.6 32.8749 30C32.8749 28.4 31.5999 27.125 29.9999 27.125ZM40.4999 28C40.0999 28.3125 39.8124 28.55 39.6499 28.975C38.0999 28.8875 36.5124 28.775 34.9374 28.625C35.1749 29.5625 35.1749 30.525 34.9374 31.3875C36.5124 31.2375 38.0874 31.1125 39.6499 31.025C39.7749 31.4625 40.1249 31.7375 40.4999 32H41.5874C41.7999 30.625 41.7874 29.275 41.5874 28H40.4999ZM18.4124 28.0125C18.1999 29.375 18.2249 30.7375 18.4124 32.0125H19.4999C19.8874 31.7 20.1999 31.475 20.3374 31.0375C21.8999 31.1125 23.4749 31.2375 25.0624 31.3875C24.8124 30.45 24.8124 29.4875 25.0499 28.625C23.4749 28.775 21.8874 28.8875 20.3374 28.975C20.2249 28.5375 19.8624 28.2625 19.4999 28.0125H18.4124ZM46.5249 29C47.0749 29 47.5249 29.45 47.5249 30C47.5249 30.55 47.0749 31 46.5249 31C45.9749 31 45.5249 30.55 45.5249 30C45.5249 29.45 45.9749 29 46.5249 29ZM13.4749 29.0125C14.0249 29.0125 14.4749 29.4625 14.4749 30.0125C14.4749 30.5625 14.0249 31.0125 13.4749 31.0125C12.9249 31.0125 12.4749 30.5625 12.4749 30.0125C12.4749 29.4625 12.9249 29.0125 13.4749 29.0125ZM34.4624 32.5125C33.9999 33.325 33.3249 34 32.4999 34.4625C33.7374 35.475 34.9374 36.5125 36.0999 37.55C35.8749 37.9375 35.9374 38.3875 36.0124 38.8375L36.7874 39.6125C37.8749 38.8375 38.8374 37.875 39.6124 36.7875L38.8374 36.0125C38.3374 35.95 37.9624 35.9125 37.5499 36.1C36.5124 34.9375 35.4749 33.7375 34.4624 32.5125ZM25.5374 32.5125C24.5249 33.7375 23.4874 34.9375 22.4499 36.1C22.0624 35.875 21.6124 35.9375 21.1749 36.0125L20.3874 36.7875C21.1624 37.8875 22.1249 38.85 23.2249 39.6125L23.9999 38.8375C24.0624 38.3375 24.0999 37.9625 23.9124 37.55C25.0749 36.5125 26.2749 35.475 27.4999 34.4625C26.6874 34 25.9999 33.325 25.5374 32.5125ZM28.6124 34.925C28.7624 36.5125 28.8874 38.1 28.9749 39.6625C28.5374 39.7625 28.2499 40.1375 27.9999 40.5V41.5875C29.3749 41.8 30.7249 41.7875 31.9999 41.5875V40.5C31.6874 40.1 31.4499 39.8125 31.0249 39.65C31.1124 38.1 31.2249 36.5125 31.3749 34.9375C30.4124 35.1 29.3999 35.15 28.6124 34.925ZM19.0249 40.9875C19.4124 41.375 19.4124 42.0125 19.0249 42.4C18.6374 42.7875 17.9999 42.7875 17.6124 42.4C17.2249 42.0125 17.2249 41.375 17.6124 40.9875C18.0499 40.6125 18.6374 40.6125 19.0249 40.9875ZM42.3999 40.9875C42.7874 41.375 42.7874 42.0125 42.3999 42.4C42.0124 42.7875 41.3749 42.7875 40.9874 42.4C40.5999 42.0125 40.5999 41.375 40.9874 40.9875C41.4249 40.6125 42.0249 40.6125 42.3999 40.9875ZM46.9749 42.5625C45.7374 44.2375 44.2374 45.7375 42.5624 46.975L43.9624 48.3875C44.4874 48.1125 44.9624 47.7375 45.3874 47.3875C45.6499 48.1875 46.2249 49.05 46.9749 49.8C48.5374 51.3625 50.4249 51.9875 51.2124 51.2125C51.9874 50.425 51.3624 48.5375 49.7999 46.975C49.0499 46.225 48.1874 45.65 47.3874 45.3875C47.7874 44.95 48.0874 44.4875 48.3874 43.9625L46.9749 42.5625ZM13.0249 42.5625L11.6249 43.9625C11.9124 44.475 12.2624 44.9875 12.6249 45.3875C11.8249 45.65 10.9624 46.225 10.2037 46.975C8.64491 48.5375 8.01366 50.425 8.79116 51.2125C9.57116 52 11.4749 51.3625 13.0374 49.8C13.7874 49.05 14.3624 48.1875 14.6249 47.3875C15.0624 47.7875 15.5249 48.0875 16.0499 48.3875L17.4499 46.9875C15.7624 45.7375 14.2749 44.25 13.0249 42.5625ZM29.9999 45.525C30.5499 45.525 30.9999 45.975 30.9999 46.525C30.9999 47.075 30.5499 47.525 29.9999 47.525C29.4499 47.525 28.9999 47.075 28.9999 46.525C28.9999 45.975 29.4499 45.525 29.9999 45.525ZM26.8749 50.9V52.875C27.4374 53.05 28.0499 53.1375 28.5874 53.175C28.2124 53.925 27.9999 54.9375 27.9999 56C27.9999 58.2125 28.8999 60 29.9999 60C31.0999 60 31.9999 58.2125 31.9999 56C31.9999 54.9375 31.7874 53.925 31.4124 53.175C31.9999 53.15 32.5374 53.0375 33.1249 52.875V50.8875C30.9874 51.2 28.8624 51.1875 26.8749 50.9Z" fill="#CDCDCD"/>
</svg>
