<svg width="50" height="38" viewBox="0 0 50 38" fill="none" xmlns="http://www.w3.org/2000/svg">
<path d="M45.307 19.3481C45.1931 19.3387 45.1044 19.3841 45.0125 19.4568C43.3701 20.7302 41.5335 21.6686 39.6731 22.5688C37.0597 23.8323 34.3513 24.8513 31.5752 25.7092C28.7451 26.5847 25.8635 27.2249 22.9397 27.6784C20.503 28.0576 18.0488 28.2517 15.5804 28.0922C14.7667 28.0401 13.9549 27.9245 13.1404 27.8386L13.338 27.6194C14.1624 27.8583 15.0147 27.8284 15.8561 27.8544C17.473 27.9052 19.0786 27.7767 20.6859 27.5943C23.1106 27.3174 25.4994 26.8501 27.8658 26.2788C33.2878 24.9726 38.4776 23.0516 43.3918 20.4046C43.9852 20.0842 44.5954 19.7937 45.1956 19.4814C45.5493 19.2955 45.6031 18.9623 45.3337 18.6888C44.9549 18.3029 44.5365 18.259 44.1034 18.5899C42.392 19.8894 40.4668 20.8026 38.5056 21.6467C36.2935 22.5989 34.0356 23.4309 31.7633 24.2226C29.7439 24.9252 27.6772 25.4399 25.569 25.8116C23.3023 26.2111 21.0184 26.4473 18.724 26.5888C17.9867 26.6327 17.2504 26.6909 16.5149 26.7319C14.9103 26.8239 13.3501 26.5945 11.8296 26.0742C11.6047 25.9965 11.3771 25.8369 11.1295 26.0097C10.8381 26.2124 10.5421 26.4162 10.4261 26.7835C10.1994 27.5 10.6538 28.4045 11.3768 28.6358C11.74 28.7536 12.1087 28.8433 12.4998 28.8646C14.7668 28.9941 17.036 29.0819 19.3045 29.0047C20.7277 28.9559 22.1408 28.7637 23.544 28.54C24.8393 28.3321 26.1277 28.0652 27.4171 27.8126C28.4654 27.6075 29.485 27.2927 30.488 26.9285C32.6451 26.1423 34.8419 25.451 36.9488 24.5359C38.5015 23.8616 40.0206 23.1078 41.5514 22.3828C42.1686 22.0907 42.7813 21.79 43.3929 21.4846C43.5121 21.4248 43.619 21.3339 43.7297 21.259C43.7252 21.3718 43.7206 21.4845 43.7137 21.5978C43.4128 21.6692 43.1866 21.8807 42.9346 22.0352C41.1376 23.1292 39.3086 24.1604 37.389 25.0262C35.8683 25.7123 34.289 26.2449 32.7003 26.7482C32.1789 26.9132 31.657 27.0759 31.1318 27.2248C30.8635 27.3006 30.7072 27.4591 30.6626 27.7294C30.6021 28.1054 30.51 28.4817 30.4942 28.8617C30.4315 30.5273 30.3041 32.1864 30.1521 33.844C30.1141 34.2535 30.1464 34.2871 30.5769 34.3816C31.7632 34.6414 32.9531 34.7037 34.1593 34.5291C34.9993 34.4075 35.836 34.2817 36.6574 34.0722C36.8929 34.0115 37.1362 33.9829 37.3978 34.0009C36.9738 34.1768 36.5571 34.3631 36.1274 34.5257C33.5634 35.4886 30.938 36.2355 28.2561 36.7869C26.2196 37.2047 24.1718 37.545 22.0961 37.7075C21.0049 37.7941 19.9133 37.7982 18.8244 37.661C16.6401 37.3904 14.8295 36.3782 13.3091 34.8334C12.2605 33.769 11.6866 32.4463 11.4321 30.9871C11.3372 30.4489 11.2631 29.9057 11.2847 29.3568C11.292 29.1439 11.1995 29.0008 10.9929 28.9187C10.7647 28.8272 10.5394 28.7278 10.3252 28.6038C9.53056 28.1443 8.99407 27.4851 8.79303 26.5739C8.77489 26.4981 8.72863 26.4266 8.69386 26.3523C8.84016 26.4462 8.89187 26.6015 8.96141 26.75C9.16829 27.1986 9.45882 27.5908 9.84008 27.9057C9.88838 27.9453 9.99891 27.9506 10.061 27.9261C10.1496 27.8905 10.1145 27.7945 10.0952 27.7238C10.0719 27.6468 10.0412 27.5692 10.011 27.4938C9.79141 26.9414 9.8728 26.4294 10.2123 25.9507C10.3029 25.8224 10.4427 25.7164 10.4165 25.526C10.1053 25.3109 9.78073 25.1112 9.48173 24.8763C9.09292 24.5705 8.76534 24.2161 8.6571 23.7029C8.59638 23.4188 8.46227 23.3656 8.19153 23.4517C7.64886 23.6291 7.3595 24.0837 7.45861 24.65C7.5052 24.9157 7.59313 25.1716 7.66269 25.4318C7.09508 25.1296 7.01295 24.5835 7.02766 24.0362C7.04437 23.5176 7.33719 23.118 7.79025 22.8503C7.83695 22.8222 7.88704 22.7982 7.93428 22.7724C8.50295 22.4602 8.50755 22.4591 8.43849 21.8662C8.37264 21.2968 8.2976 20.7296 8.22026 20.163C8.17372 19.8366 8.13965 19.8058 7.81866 19.7631C7.35976 19.702 6.89902 19.6536 6.44077 19.5851C4.85262 19.3503 3.38274 18.8082 2.08037 17.8502L2.07448 17.8661C2.21961 17.7928 2.33514 17.8698 2.44782 17.945C3.68 18.762 5.0629 19.1232 6.50766 19.3168C8.46396 19.5784 10.4149 19.5232 12.3579 19.232C13.0281 19.1312 13.7136 19.1045 14.3633 18.8872C14.5515 18.8619 14.7429 18.8505 14.9244 18.8074C15.1013 18.7654 15.317 18.7944 15.4436 18.5725C15.106 18.5823 14.7846 18.5882 14.4619 18.5992C14.4091 18.602 14.3578 18.6312 14.3084 18.6477C13.2923 18.6121 12.2903 18.7771 11.2813 18.8321C10.2437 18.889 9.20705 18.9602 8.1684 18.8911C6.50739 18.778 4.9337 18.3601 3.47522 17.541C3.09407 17.328 2.7257 17.0974 2.40726 16.8016C2.54688 16.5937 2.71211 16.6856 2.86084 16.7085C4.48391 16.9472 6.11122 17.163 7.75334 17.2176C9.57187 17.2788 11.3596 17.0997 13.1006 16.553C13.9134 16.297 14.6745 15.9368 15.4127 15.5115C16.0225 15.1581 16.384 14.6499 16.4971 13.9555C16.5508 13.632 16.6096 13.3098 16.6839 12.9912C16.9295 11.9376 17.3678 10.9791 18.0541 10.1341C18.5995 9.46094 19.2623 8.9638 20.0824 8.66724C20.1456 8.8707 19.9945 8.96967 19.9096 9.09177C19.5272 9.62432 19.1306 10.1481 18.7596 10.6877C18.6066 10.9109 18.4923 11.1638 18.3872 11.4145C18.3443 11.5193 18.4281 11.6257 18.5411 11.662C18.612 11.684 18.7075 11.6977 18.7599 11.6125C18.9061 11.3811 19.0471 11.1486 19.1881 10.9161C19.9624 9.64727 21.0008 8.67018 22.37 8.06122C24.5289 7.0998 26.6395 7.2859 28.6771 8.40449C30.4155 9.3586 31.6316 10.8081 32.4626 12.5966C32.7772 13.272 32.978 13.9793 33.1432 14.6999C33.1811 14.8584 33.2061 15.0442 33.4351 15.0069C33.6291 14.9754 33.6898 14.8129 33.7024 14.6424C33.7334 14.2345 33.7496 13.8253 33.6833 13.4162C33.5642 12.675 33.2788 11.9999 32.9083 11.3547C32.1589 10.0494 31.1562 8.98379 29.8879 8.16813C29.704 8.04912 29.526 7.92388 29.3473 7.79635C29.3382 7.7888 29.3472 7.75512 29.3532 7.66873C29.7271 7.86158 30.0951 8.01943 30.4298 8.23129C31.1454 8.68532 31.8476 9.1644 32.5493 9.64117C33.0016 9.94891 33.4511 10.2646 33.8982 10.5809C34.784 11.2082 35.778 11.4359 36.8474 11.4103C37.9294 11.3866 38.9633 11.1315 39.9708 10.7759C42.2967 9.95449 44.5301 8.93898 46.5979 7.57678C47.3068 7.10997 48.0145 6.6483 48.595 6.02019C48.6743 5.93582 48.7305 5.98803 48.7943 6.03116C48.9092 6.10583 48.8835 6.21146 48.8521 6.31358C48.7616 6.5948 48.6637 6.87536 48.576 7.15833C48.5648 7.19255 48.6024 7.26859 48.6349 7.28272C48.6697 7.2963 48.7496 7.27493 48.7711 7.24312C48.9631 6.94994 49.117 6.63912 49.1687 6.28701C49.4721 5.74893 49.5508 5.15493 49.5821 4.5552C49.6183 3.86448 49.3314 3.34513 48.7097 3.0096C48.2749 2.77536 47.8196 2.58726 47.3466 2.44705C45.9556 2.03191 44.5474 1.68642 43.104 1.5289C39.2705 1.11324 35.4234 0.965398 31.568 1.01616C30.0673 1.03489 28.5686 1.13325 27.0747 1.26201C26.6417 1.29921 26.2078 1.37306 25.7949 1.52445C25.8078 1.43642 25.8202 1.3461 25.8331 1.25807C25.8839 1.27757 25.9379 1.32059 25.9821 1.31253C28.8434 0.810707 31.7349 0.779938 34.6276 0.794995C37.5232 0.811803 40.4119 0.932173 43.2947 1.2506C44.7387 1.41041 46.1482 1.74103 47.5393 2.14644C48.0643 2.30101 48.5739 2.50293 49.0402 2.79767C49.5861 3.14145 49.8976 3.61128 49.9345 4.27252C49.9635 4.79968 49.908 5.30807 49.7682 5.80973C49.449 6.95116 48.9256 8.00024 48.2722 8.98307C47.7671 9.74378 47.0692 10.3172 46.3266 10.8357C46.1477 10.9607 45.9575 11.069 45.7747 11.1876C45.6236 11.2866 45.5345 11.4218 45.6089 11.6008C45.8807 12.2597 46.0421 12.9545 46.2547 13.6298C46.3674 13.9891 46.4057 13.997 46.856 14.0018C46.9654 14.0025 47.076 13.9981 47.1831 14.0091C48.0537 14.0962 48.6318 14.8281 48.5413 15.7283C48.54 15.7431 48.4563 15.7484 48.4104 15.7593C48.3169 15.5412 48.2407 15.3141 48.1236 15.1089C47.8883 14.6938 47.4681 14.4901 47.0395 14.5554C46.5844 14.6221 46.3215 14.903 46.2244 15.4309C46.1747 15.7 46.1886 15.971 46.2615 16.2353C46.3224 16.4491 46.4163 16.6283 46.6712 16.6891C47.021 16.7712 47.2932 16.9955 47.552 17.235C47.7084 17.5232 47.8711 17.8075 48.0206 18.0973C48.3145 18.666 48.3629 19.2638 48.0998 19.8384C47.9468 20.1733 47.9846 20.4629 48.0552 20.7884C48.378 22.2897 48.5632 23.8042 48.5213 25.3434C48.4677 27.2399 47.8536 28.9246 46.6766 30.408C46.2901 30.8929 45.8963 31.3675 45.3984 31.8134C45.3905 31.5774 45.5368 31.4989 45.6239 31.386C45.9078 31.0201 46.2031 30.6611 46.4779 30.2876C47.5897 28.7858 48.1231 27.0983 48.0887 25.23C48.0637 23.8572 47.8762 22.5058 47.5339 21.1767C47.5086 21.0711 47.4672 20.9692 47.4172 20.8718C47.3419 20.7295 47.2265 20.8054 47.1373 20.8485C46.9985 20.9178 46.9776 21.0538 46.9825 21.1959C47.0083 21.9326 47.0466 22.6712 47.0478 23.4064C47.05 24.0346 47.0156 24.6618 46.9812 25.289C46.9315 26.1771 46.6704 27.0037 46.25 27.7831C45.6609 28.8721 44.9267 29.8522 44.0657 30.7387C43.4636 31.3574 42.7172 31.7384 41.9846 31.9438C42.8587 31.3965 43.9107 30.4866 44.6108 29.699C45.6106 28.5709 46.1521 27.2626 46.2069 25.7567C46.2627 24.2142 46.0448 22.705 45.6519 21.2155C45.5901 20.9777 45.4556 20.8009 45.2899 20.6363C45.5054 20.4614 45.6972 20.5931 45.8819 20.5735C47.056 20.4478 47.675 19.5241 47.3018 18.4111C47.2072 18.1277 47.0846 17.8485 46.9308 17.5912C46.4492 16.7758 45.5432 16.6728 44.8632 17.3415C44.7162 17.4881 44.7347 17.6366 44.9212 17.7259C44.9953 17.7617 45.0765 17.7764 45.1524 17.8094C45.9319 18.1245 46.164 18.9627 45.9021 19.6536C45.8455 19.8029 45.7496 19.9398 45.6702 20.0848C45.4219 19.9399 45.6229 19.7247 45.5592 19.5601C45.5761 19.2551 45.5545 19.236 45.3179 19.3431L45.307 19.3481ZM15.9829 34.9684C15.9992 34.8844 16.0097 34.8067 15.8797 34.8618C15.9183 34.8915 15.957 34.9212 15.9956 34.9508C16.0367 34.9702 16.0778 34.9896 16.1183 35.0067C16.1183 35.0067 16.1426 34.9766 16.1387 34.9703C16.0863 34.8832 16.0336 34.937 15.9806 34.969L15.9829 34.9684ZM48.4159 7.85902C48.5057 7.81829 48.5374 7.74766 48.5217 7.65185C48.5786 7.58496 48.7052 7.52577 48.5744 7.42572C48.4937 7.36234 48.4482 7.44598 48.4029 7.50041C48.3879 7.51855 48.3796 7.54479 48.3684 7.56928C48.3311 7.6364 48.2937 7.70353 48.2587 7.77011L48.141 7.95824C47.717 8.5298 47.2737 9.08167 46.7394 9.55801C45.8745 10.3264 44.8979 10.9223 43.8603 11.4259C42.4047 12.1306 40.8748 12.6466 39.3551 13.1844C39.1826 13.2448 38.9695 13.2371 38.8581 13.431C39.0272 13.4783 39.182 13.4149 39.336 13.3686C39.7825 13.2359 40.2262 13.1015 40.6666 12.9533C41.107 12.8051 41.5412 12.6414 41.9783 12.4794C42.1745 12.4061 42.2927 12.4946 42.3684 12.6587C42.4268 12.7808 42.4638 12.9152 42.5095 13.0451C42.9226 14.2337 43.3316 15.4256 43.7493 16.613C43.8267 16.835 43.8775 17.0778 44.1208 17.2725C44.4151 16.5546 45.0884 16.3753 45.7294 16.1625C45.2698 14.871 44.8257 13.634 44.3977 12.3931C44.3108 12.1419 44.1223 11.8613 44.2715 11.6123C44.3688 11.4508 44.6216 11.3811 44.8038 11.2699C45.0373 11.1296 45.2742 10.9932 45.5071 10.8506C46.1845 10.4349 46.8371 9.98634 47.3816 9.40076C47.7523 9.00206 48.1333 8.60578 48.2947 8.06257C48.3799 8.02293 48.4195 7.95526 48.4113 7.86011L48.4159 7.85902ZM18.4833 12.2219C18.5712 11.9194 18.5522 11.8098 18.3938 11.7867C18.1747 11.7538 18.1404 11.9148 18.1135 12.0766C17.9692 12.2443 17.9344 12.4541 17.8967 12.6621C17.8713 12.7992 17.8849 12.927 18.0513 12.9628C18.169 12.9883 18.2596 12.9304 18.2996 12.8238C18.3692 12.6276 18.4246 12.4227 18.4862 12.2236L18.4833 12.2219ZM18.7115 17.9233C18.8719 18.3804 19.0074 18.8556 19.2005 19.3074C20.0272 21.2401 21.3367 22.7354 23.2503 23.6503C26.0505 24.9933 29.229 24.2342 31.1319 21.7872C31.8303 20.8908 32.3074 19.8818 32.5645 18.7746C33.0449 16.704 32.8338 14.6956 31.9343 12.7729C31.1732 11.145 30.0331 9.84019 28.4498 8.95607C25.3858 7.24116 21.8259 8.10054 19.8904 10.9291C18.4283 13.0675 18.1798 15.4277 18.712 17.9256L18.7115 17.9233ZM9.84471 19.8697C9.63973 19.8552 9.44919 19.83 9.25955 19.8289C8.89516 19.828 8.81187 19.906 8.84672 20.2546C8.95404 21.3118 9.08084 22.3692 9.18357 23.4275C9.22353 23.838 9.41461 24.1494 9.718 24.4027C9.90606 24.5596 10.1098 24.7006 10.3089 24.8427C10.3942 24.905 10.4914 24.9766 10.6026 24.9138C10.7225 24.8465 10.6796 24.728 10.6646 24.6248C10.4683 23.3581 10.2743 22.0908 10.0688 20.8263C10.0202 20.532 9.93256 20.2469 9.84296 19.8725L9.84471 19.8697ZM16.4269 35.0281C16.411 35.0634 16.3975 35.0982 16.3817 35.1335C16.5008 35.1951 16.617 35.2646 16.7408 35.3153C18.9252 36.1952 21.1805 36.4076 23.4988 36.0516C23.7399 36.0138 23.9871 35.9819 24.1943 35.8332C24.2959 35.7605 24.3224 35.577 24.2502 35.4679C24.1701 35.3461 24.0544 35.2789 23.9283 35.2287C23.6413 35.1148 23.3423 35.1032 23.0393 35.146C22.7415 35.1899 22.4454 35.2408 22.1514 35.3009C20.2981 35.6727 18.4619 35.6594 16.65 35.0577C16.5792 35.0357 16.5018 35.037 16.4263 35.0258L16.4269 35.0281ZM17.8398 15.6201C17.9335 14.6924 18.0241 13.8941 18.221 13.1143C18.233 13.0629 18.2371 12.9988 18.2187 12.9522C18.1985 12.9085 18.1491 12.8643 18.1011 12.8466C18.0532 12.8288 17.9673 12.825 17.9447 12.8522C17.8796 12.9356 17.8053 13.0309 17.7883 13.132C17.6606 13.9173 17.64 14.7038 17.8398 15.6201ZM26.3192 34.9526C26.271 34.731 26.0593 34.5871 25.8412 34.6291C25.5932 34.6783 25.4154 34.9195 25.452 35.1536C25.4909 35.3871 25.7663 35.5742 25.9909 35.5185C26.2201 35.4617 26.3711 35.2001 26.3169 34.9532L26.3192 34.9526ZM10.2859 28.0743C10.2659 28.062 10.2477 28.0469 10.2278 28.0346C10.2156 28.0545 10.2039 28.0767 10.1917 28.0966C10.219 28.1095 10.2459 28.1202 10.2755 28.1325L10.2887 28.076L10.2859 28.0743Z" fill="#FCFCFC"/>
<path d="M0.443786 13.6288C0.596198 13.1192 0.908044 12.7078 1.25066 12.3134C2.0397 11.4003 2.96132 10.6354 3.94353 9.94109C6.08398 8.42572 8.37036 7.15489 10.7338 6.02355C13.247 4.81784 15.8468 3.8319 18.5485 3.13005C19.2091 2.9587 19.8819 2.83789 20.5446 2.68547C20.7284 2.64185 20.9034 2.56149 21.0805 2.50004C21.0679 2.54914 21.0554 2.59823 21.0423 2.64503C20.574 2.66635 20.1253 2.78984 19.6888 2.94439C18.7895 3.26463 17.8996 3.61418 17.008 3.95684C16.859 4.01405 16.7042 4.08721 16.5828 4.18883C16.1419 4.55806 15.7458 4.97249 15.4321 5.45719C15.3576 5.57197 15.2622 5.71112 15.3538 5.83017C15.4324 5.93533 15.5892 5.95151 15.7314 5.94691C16.7752 5.89581 17.7825 5.67134 18.7731 5.33673C20.9222 4.60824 23.1032 4.01298 25.3369 3.58728C29.8576 2.72562 34.3961 2.71909 38.9544 3.24189C40.5225 3.42323 42.0857 3.63486 43.6353 3.94195C43.5018 3.88138 43.4573 3.91864 43.496 4.05997C43.454 4.02625 43.4138 3.97023 43.3686 3.96397C39.6683 3.58711 35.9648 3.28867 32.2407 3.45151C29.276 3.58218 26.3709 4.05313 23.5216 4.89924C18.9925 6.24351 14.6971 8.10765 10.5462 10.3526C8.35806 11.537 6.70023 13.2024 5.42993 15.3002C4.86294 16.2382 4.85605 16.2399 3.75143 16.1792C3.23205 16.1495 2.71343 16.1027 2.21731 15.9267C1.97352 15.8413 1.9361 15.7458 2.05324 15.4947C2.1112 15.3717 2.19315 15.2576 2.23513 15.1286C2.25465 15.0682 2.22357 14.9688 2.17712 14.9167C2.12332 14.8542 2.02473 14.8582 1.96561 14.9256C1.80616 15.1115 1.65525 15.3027 1.47539 15.525C0.971007 15.2029 0.707089 14.729 0.606423 14.1461C0.583632 14.0204 0.651636 13.8683 0.486211 13.7959L0.480418 13.8021C0.571918 13.8193 0.641036 13.7834 0.619049 13.6916C0.59816 13.6043 0.520994 13.5862 0.436344 13.6281L0.442039 13.6316L0.443786 13.6288ZM10.3794 8.824C10.1253 8.74595 9.96605 8.8517 9.81173 8.92716C8.76532 9.45465 7.71946 9.98444 6.71692 10.5938C5.20937 11.5074 3.91253 12.6624 2.72263 13.9497C2.59344 14.0896 2.48868 14.2504 2.37143 14.3996C2.30467 14.4859 2.35717 14.5632 2.40647 14.6171C2.45862 14.6727 2.54828 14.7024 2.61779 14.6276C2.72785 14.5092 2.83681 14.3863 2.93953 14.2575C3.55299 13.4832 4.2691 12.8132 5.04415 12.2069C6.16283 11.3321 7.35999 10.5722 8.58083 9.85042C9.16184 9.50863 9.75303 9.17899 10.3783 8.8194L10.3794 8.824Z" fill="#FCFCFC"/>
<path d="M39.8678 35.3033C37.288 36.3622 34.6484 37.2629 31.9163 37.8482L39.8678 35.3033Z" fill="#FCFCFC"/>
</svg>
