<svg width="201" height="116" viewBox="0 0 201 116" fill="none" xmlns="http://www.w3.org/2000/svg">
<path d="M0.292236 115.822C0.988433 114.904 1.89941 114.571 2.71411 114.119C7.35789 111.527 12.1128 109.134 17.0158 107.083C18.2156 106.579 18.8822 105.868 19.3191 104.594C22.2076 96.0843 26.3848 88.241 31.7544 81.0273C32.0136 80.6866 32.2728 80.3459 32.5098 79.9904C32.732 79.6645 32.6876 79.3238 32.4284 79.0572C31.8951 78.5017 31.3174 77.9832 30.7767 77.4426C30.3546 77.0204 29.9102 76.6057 29.5473 76.1317C28.8955 75.2873 29.0066 74.7541 29.9917 74.3689C32.6283 73.3321 34.6355 71.4879 36.4944 69.4363C37.7831 68.0143 38.6571 66.3627 39.1311 64.4889C39.3607 63.5779 39.7606 63.4594 40.6272 63.8149C41.2864 64.0889 41.7529 64.5926 42.2566 65.0518C43.012 65.7332 43.7527 66.4293 44.5377 67.1626C45.4117 66.4738 46.1523 65.8887 46.8781 65.3036C58.1876 56.1864 70.9932 50.3057 85.243 47.5432C86.6724 47.2691 88.1241 47.0988 89.5609 46.8692C90.5608 46.7137 90.6719 46.5803 90.7015 45.5286C90.7311 44.2473 90.7015 42.9586 90.7755 41.6773C90.82 40.9441 91.3532 40.6849 92.0494 40.9663C95.2416 42.2402 98.5152 42.5439 101.892 41.9366C103.174 41.707 104.359 41.2478 105.485 40.596C106.492 40.0183 107.062 40.285 107.277 41.4033C107.41 42.0773 107.425 42.7661 107.499 43.4475C107.603 44.3584 107.21 45.462 107.966 46.1286C108.603 46.684 109.61 46.41 110.454 46.4989C124.334 48.0542 137.161 52.5425 148.856 60.208C150.574 61.3338 152.219 62.578 153.907 63.7557C154.596 64.2371 154.855 64.2074 155.463 63.6001C156.129 62.9336 156.759 62.2299 157.41 61.5486C157.766 61.1782 158.158 60.845 158.692 60.7265C159.055 60.645 159.403 60.6746 159.595 61.0079C159.81 61.3708 159.914 61.8004 160.106 62.1781C161.602 65.0518 163.698 67.3922 166.394 69.1919C167.402 69.8659 168.52 70.2806 169.698 70.5843C170.549 70.8065 170.794 71.3546 170.372 72.0952C170.075 72.6136 169.705 73.0951 169.312 73.5394C168.638 74.3097 167.913 75.0429 167.157 75.8502C167.446 76.8279 168.179 77.4352 168.75 78.1388C175.015 85.8784 179.844 94.4253 183.162 103.817C183.333 104.298 183.429 104.824 183.673 105.268C183.955 105.779 183.414 106.275 183.696 106.698C184.095 107.298 184.836 107.423 185.443 107.705C189.48 109.601 193.457 111.608 197.331 113.837C198.567 114.548 199.812 115.237 200.708 116C199.256 115.822 197.679 115.185 196.057 114.689C184.984 111.275 173.719 108.66 162.306 106.631C154.196 105.187 146.034 104.068 137.843 103.239C132.555 102.706 127.237 102.417 121.934 102.009C114.994 101.476 108.047 101.439 101.093 101.395C92.5086 101.335 83.9247 101.558 75.3629 102.143C55.2992 103.513 35.4501 106.335 15.9492 111.364C11.5499 112.497 7.20976 113.837 2.84002 115.089C2.03273 115.319 1.22544 115.563 0.299643 115.837L0.292236 115.822ZM106.321 83.3899C106.299 83.1306 106.151 83.0196 105.899 83.0492C105.833 83.0566 105.722 83.1455 105.729 83.1751C105.781 83.4195 105.966 83.4936 106.196 83.4936C107.521 85.123 109.165 86.4709 110.313 88.2558C110.439 88.4484 110.706 88.5743 110.936 88.6558C111.261 88.7669 111.639 88.7817 111.839 88.4484C111.95 88.2558 112.002 87.9077 111.906 87.7448C110.61 85.5896 108.906 83.9305 106.329 83.3899H106.321ZM101.87 79.7015C102.752 79.9311 103.314 80.1015 103.892 80.2348C109.069 81.4568 112.809 84.4786 115.031 89.2927C115.572 90.4555 116.224 91.0702 117.505 91.0258C118.016 91.011 118.535 91.0851 119.046 91.1369C122.282 91.4628 125.526 91.7442 128.763 92.1293C131.651 92.47 134.54 92.8848 137.413 93.3292C138.384 93.4773 139.013 93.2477 139.554 92.396C141.072 90.0111 142.664 87.6781 144.22 85.3155C144.397 85.0415 144.494 84.7008 144.731 84.1527C144.405 83.9157 144.035 83.6935 143.709 83.4195C134.562 75.6206 124.052 70.7176 112.232 68.6438C109.61 68.1846 106.966 67.9476 104.307 67.8514C103.774 67.8291 103.226 67.8662 103.144 68.5476C102.715 72.1989 102.315 75.8502 101.878 79.7163L101.87 79.7015ZM63.7794 93.4329C64.172 93.381 64.6015 93.3366 65.0237 93.2699C69.6008 92.5441 74.1927 91.9294 78.8069 91.5146C80.2585 91.3813 81.7102 91.211 83.1692 91.1665C84.3024 91.1295 85.1912 90.8851 85.4948 89.6334C85.5763 89.3075 85.754 88.9965 85.9096 88.6928C87.9389 84.7748 91.057 82.1234 95.2045 80.6347C96.1377 80.3014 97.5005 80.5829 97.9301 79.5238C98.3004 78.598 97.7227 77.5166 97.5227 76.5168C97.4709 76.265 97.4561 76.0057 97.4042 75.7539C96.9672 73.5691 96.5451 71.3768 96.0785 69.1993C95.8267 68.0365 95.7304 68.0069 94.5009 68.0884C94.2417 68.1032 93.9899 68.1254 93.7307 68.1624C82.5323 69.5919 72.3115 73.5098 63.1499 80.1459C61.1354 81.6124 59.2171 83.1973 57.3729 84.8785C56.8989 85.3081 56.8989 85.7229 57.2692 86.2117C58.9209 88.404 60.5725 90.5962 62.2093 92.8033C62.6018 93.3366 63.061 93.6328 63.772 93.4477L63.7794 93.4329ZM56.8026 65.2221C57.2544 65.5332 57.5211 65.2369 57.8099 65.0888C60.3947 63.7334 63.0906 62.6447 65.8606 61.7337C67.8899 61.0597 69.9267 60.3858 71.9264 59.6081C73.778 58.8897 75.6814 58.4601 77.6441 58.1787C80.0141 57.838 82.4064 57.5788 84.6949 56.8011C85.8429 56.4086 86.9316 55.9272 87.8204 55.0754C88.7018 54.2311 89.0869 53.1794 88.7092 52.5795C88.2278 51.8092 87.376 51.9129 86.6354 51.8166C86.3021 51.7722 85.9466 51.8314 85.6133 51.8833C84.258 52.0981 82.8952 52.2684 81.562 52.5573C73.1262 54.3644 65.4755 57.838 58.7875 63.3483C58.0913 63.9186 57.3063 64.4148 56.81 65.2147L56.8026 65.2221ZM155.159 96.7509C155.122 96.5287 155.144 96.2473 155.026 96.0621C153.263 93.4329 151.3 90.9591 149.138 88.6558C148.397 87.8707 148.249 87.8559 147.441 88.5002C145.975 89.6704 144.523 90.8629 143.064 92.0553C142.538 92.4849 142.005 92.9144 141.502 93.381C141.272 93.5958 141.42 93.8773 141.635 94.0106C141.842 94.1365 142.116 94.1883 142.361 94.2328C146.227 94.9215 150.056 95.7807 153.855 96.7509C154.263 96.8546 154.685 96.9731 155.151 96.7509H155.159ZM59.4541 94.1439C57.1359 92.3664 55.1214 90.8555 53.018 89.5149C52.0107 90.2037 51.4479 91.0776 50.7961 91.8553C50.1888 92.5737 49.5889 93.2996 49.0704 94.0846C48.5372 94.8845 47.7447 95.5585 47.5521 96.7731C51.5145 95.8992 55.2991 95.0623 59.4541 94.1439ZM95.6341 52.1055C95.6637 51.2093 94.7824 50.4761 93.7085 50.4909C92.7382 50.5057 92.0346 51.1871 92.0791 52.0684C92.1235 53.0387 92.99 53.9719 93.8195 53.9497C94.6861 53.92 95.6045 52.9868 95.6267 52.1129L95.6341 52.1055ZM113.172 90.2037C113.039 90.0852 112.891 89.8482 112.698 89.8038C112.439 89.7519 112.269 89.9963 112.261 90.2481C112.247 90.5296 112.469 90.6851 112.713 90.6777C112.928 90.6777 113.172 90.5814 113.172 90.1963V90.2037Z" fill="#F9F6ED"/>
<path d="M98.3374 40.759C96.8784 40.796 95.3378 40.6108 93.8566 40.1516C92.2568 39.6554 90.9089 38.7815 90.1756 37.1669C89.635 35.9893 89.5905 34.8265 90.2645 33.7155C90.7533 32.9156 91.331 32.1602 91.9309 31.4344C94.1825 28.7236 94.8712 25.6648 93.9529 22.2801C93.3529 20.0434 92.6568 17.8363 91.9976 15.6144C91.3384 13.3925 90.7237 11.1632 90.4867 8.84503C90.1164 5.24554 92.1753 1.78678 95.5304 0.401794C96.871 -0.146275 98.1967 -0.109244 99.5446 0.364762C102.996 1.5794 105.373 4.89004 105.64 8.84503C105.766 10.7633 105.455 12.6074 104.848 14.4146C104.218 16.281 103.566 18.1474 102.922 20.0064C102.3 21.8061 101.952 23.6429 101.981 25.5611C102.026 28.2719 102.966 30.5826 104.899 32.4861C105.203 32.7897 105.536 33.0638 105.825 33.3748C107.181 34.8339 107.277 36.3892 106.129 38.0334C105.41 39.0629 104.411 39.6999 103.255 40.1146C101.7 40.6775 100.078 40.8108 98.3374 40.7516V40.759ZM103.085 8.14883C102.974 6.72681 102.796 5.45292 102.196 4.29012C101.537 3.00883 100.567 2.09785 99.0336 1.98675C98.2485 1.9275 97.7523 2.5052 97.856 3.27546C97.9449 3.9124 98.2559 4.40863 98.7374 4.78635C100.226 5.94174 101.144 7.42301 101.455 9.28941C101.507 9.59307 101.567 9.99301 102.063 9.91154C102.448 9.84488 102.655 9.56344 102.781 9.25237C102.929 8.85984 103.003 8.43768 103.077 8.14883H103.085ZM93.664 36.3818C93.8492 35.3894 94.0714 34.4043 94.2121 33.4045C94.2565 33.086 94.101 32.7083 93.7085 32.5972C93.3233 32.4935 93.0567 32.7305 92.8715 33.0193C91.9606 34.4265 92.1902 35.3671 93.6714 36.3818H93.664ZM100.13 37.952C98.3893 38.1001 96.9376 37.2261 95.3675 36.9373C95.0712 36.8854 94.8638 36.9743 94.8638 37.2854C94.8638 37.4039 95.0194 37.5816 95.1453 37.6261C96.034 37.952 96.945 38.1297 97.9004 38.0705C98.6411 38.026 99.3891 37.9964 100.13 37.952ZM101.989 12.4667C101.589 12.5556 101.455 12.8148 101.493 13.1777C101.515 13.4296 101.641 13.6443 101.915 13.674C102.315 13.7184 102.663 13.237 102.529 12.8222C102.448 12.5852 102.27 12.4223 101.996 12.4667H101.989ZM101.929 37.3446L102.159 37.315L102.137 37.4409L101.929 37.3372V37.3446Z" fill="#F9F6ED"/>
<path d="M187.376 34.5524C187.88 34.5524 188.139 34.545 188.399 34.5524C191.591 34.6932 193.679 36.4559 194.338 39.5962C194.916 42.3439 194.39 44.8695 192.813 47.1951C191.576 49.017 189.902 50.3428 187.984 51.35C186.465 52.1499 184.903 52.8609 183.355 53.5942C181.725 54.3718 180.133 55.2161 178.733 56.3715C176.148 58.5194 174.712 61.2301 174.763 64.6518C174.763 65.0814 174.749 65.511 174.771 65.9405C174.86 67.2811 174.164 68.5105 172.238 69.0438C170.964 69.3993 169.69 69.2586 168.468 68.7179C167.357 68.2291 166.372 67.5477 165.469 66.7478C164.039 65.4887 162.824 64.0519 161.825 62.4373C161.18 61.4004 160.788 60.2895 160.803 59.0378C160.825 56.6752 162.062 55.1199 164.358 54.6977C164.943 54.5866 165.55 54.5792 166.15 54.5348C169.86 54.2311 172.601 52.3721 174.452 49.2022C175.445 47.4987 176.326 45.7286 177.282 44.0029C178.111 42.4995 178.948 41.0034 179.844 39.5443C180.333 38.7444 180.926 37.9964 181.525 37.2706C183.103 35.3671 185.11 34.3821 187.376 34.5599V34.5524ZM166.328 64.0297C166.705 64.0001 166.913 64.1556 166.905 64.5481C167.076 64.4148 167.202 64.437 167.231 64.6148C167.231 64.6444 167.135 64.7185 167.076 64.7407C166.75 64.8518 167.216 64.7111 166.898 64.5852C166.683 64.4 166.476 64.2148 166.261 64.0297L166.283 63.9038C166.283 63.9038 166.305 64.0371 166.32 64.0297H166.328ZM190.102 41.0256C190.243 42.4846 189.865 43.9289 188.961 45.2398C188.821 45.4472 188.687 45.662 188.576 45.8916C188.443 46.1656 188.806 46.6248 189.11 46.5655C189.435 46.5063 189.828 46.4915 190.072 46.3063C191.665 45.0695 192.776 43.4919 193.094 41.47C193.242 40.5294 192.946 39.6184 192.398 38.8259C192.154 38.4704 191.791 38.189 191.339 38.226C190.783 38.2704 190.443 38.663 190.235 39.1518C190.006 39.7147 190.013 40.3146 190.095 41.0256H190.102ZM166.876 56.8752C166.883 56.416 166.624 56.2901 166.387 56.2678C165.357 56.1567 164.476 56.7122 163.995 57.7787C163.817 58.1713 163.691 58.6749 164.009 58.986C164.461 59.4229 164.669 58.8601 164.965 58.6157C165.483 58.1861 166.076 57.8454 166.594 57.4158C166.765 57.2751 166.816 56.9863 166.876 56.8752ZM165.854 62.9558C165.728 62.0078 165.32 61.4004 164.935 60.7857C164.795 60.5561 164.595 60.4228 164.372 60.6154C164.276 60.6894 164.239 60.9264 164.283 61.0523C164.55 61.8152 164.95 62.4744 165.861 62.9558H165.854ZM187.08 48.4467C187.006 48.1949 186.895 47.9876 186.577 48.0098C186.191 48.032 185.91 48.2468 185.888 48.5949C185.866 48.9652 186.162 49.1874 186.547 49.1503C186.939 49.1059 187.102 48.8393 187.08 48.4542V48.4467Z" fill="#F9F6ED"/>
<path d="M3.06962 46.5433C3.09183 46.1137 3.09924 45.6842 3.12887 45.2546C3.33624 42.7883 4.60273 41.0848 6.9061 40.2183C9.73532 39.1518 12.4683 39.4628 15.0753 40.9515C16.6677 41.8625 17.9712 43.1142 18.934 44.6695C19.7413 45.9804 20.4375 47.358 21.1485 48.7282C21.9336 50.2539 22.6372 51.8166 23.4519 53.3275C24.2369 54.7718 25.2442 56.0531 26.5329 57.0899C28.3252 58.5342 30.3398 59.3933 32.6802 59.3563C33.1912 59.3563 33.7097 59.3119 34.2207 59.3341C36.2278 59.4229 37.3906 60.4746 37.6869 62.4447C37.9017 63.8593 37.6128 65.1925 36.9018 66.4071C35.302 69.1401 33.0283 71.1842 30.2805 72.7173C29.3547 73.2358 28.3327 73.3765 27.2958 73.3395C25.0442 73.2728 23.6296 72.0359 23.2445 69.7992C23.0964 68.9549 23.0075 68.1032 22.9186 67.244C22.5927 64.2223 21.0078 61.9633 18.5711 60.2747C17.5194 59.5489 16.364 58.9563 15.2382 58.3342C13.3644 57.2973 11.4462 56.3345 9.5872 55.2606C8.40218 54.5792 7.2542 53.8089 6.17287 52.972C4.06947 51.3648 2.85483 49.2837 3.06962 46.5359V46.5433ZM32.1321 68.1624C32.1543 68.081 32.184 68.0069 32.2062 67.9254C32.1914 67.9402 32.1765 67.9476 32.1765 67.9625C32.1765 68.0439 32.1765 68.1254 32.1765 68.1995C31.9988 68.1847 31.7322 67.8143 31.6803 68.318C31.8359 68.2661 31.984 68.2143 32.1395 68.1624H32.1321ZM9.9353 44.0844C10.3352 44.1288 11.0092 44.2029 11.6832 44.2844C12.7423 44.4177 13.5274 45.1139 14.4013 45.6249C14.705 45.8027 15.0457 45.5286 15.0827 45.1583C15.1271 44.7065 15.0383 44.2844 14.7716 43.9585C13.7199 42.692 12.4312 41.707 10.8315 41.27C9.66126 40.9515 8.46143 40.9886 7.41714 41.7588C7.06904 42.018 6.76538 42.3217 6.78019 42.7957C6.79501 43.3808 7.19495 43.6845 7.66895 43.9289C8.3059 44.2622 8.97988 44.2473 9.9427 44.0844H9.9353ZM27.6142 70.1473C27.7994 69.9029 27.792 69.7548 27.6365 69.6437C27.0069 69.1919 26.6144 68.5698 26.2515 67.9032C25.97 67.3774 25.2294 67.1329 25.0146 67.3996C24.6517 67.8365 24.7035 68.3402 24.9183 68.8142C25.3257 69.7178 26.0589 70.2436 27.0365 70.3769C27.2439 70.4065 27.4809 70.214 27.6216 70.1547L27.6142 70.1473ZM29.0733 69.5993C29.0881 69.6955 29.0733 69.777 29.1103 69.8289C29.1548 69.8955 29.2584 69.9918 29.3103 69.977C29.9917 69.814 30.5916 69.5252 30.9619 68.8957C30.9915 68.8512 30.9767 68.7475 30.9471 68.7105C30.8952 68.6438 30.799 68.555 30.7397 68.5698C30.0731 68.7327 29.4584 69.0068 29.0733 69.5993ZM17.1935 47.0692C16.8602 46.9951 16.7195 47.2025 16.6158 47.4321C16.4381 47.8172 16.6899 48.0764 16.9565 48.269C17.2157 48.4542 17.6231 48.1801 17.6453 47.8098C17.6675 47.4543 17.5416 47.1803 17.1935 47.0692Z" fill="#F9F6ED"/>
</svg>
